<svg width="0" height="0">
    <symbol id="icon-ig" viewBox="0 0 19 19" xmlns="http://www.w3.org/2000/svg">
        <path d="M2.19213 0H16.8079C18.0191 0 19 0.981667 19 2.19213V16.8063C19 18.0183 18.0191 19 16.8087 19H2.19213C0.981667 19 0 18.0183 0 16.8063V2.19213C0 0.981667 0.981667 0 2.19213 0ZM13.1543 9.5C13.1543 7.48125 11.518 5.84646 9.5 5.84646C7.48204 5.84646 5.84646 7.48125 5.84646 9.5C5.84646 11.5172 7.48204 13.1543 9.5 13.1543C11.518 13.1543 13.1543 11.518 13.1543 9.5ZM16.625 15.8951C16.625 16.298 16.298 16.625 15.8935 16.625H3.1065C2.70196 16.625 2.375 16.298 2.375 15.8951V7.91667H3.87679C3.80713 8.16604 3.75567 8.42333 3.71846 8.68538C3.67887 8.95217 3.65433 9.22292 3.65433 9.5C3.65433 12.7292 6.27158 15.3465 9.5 15.3465C12.7284 15.3465 15.3457 12.7292 15.3457 9.5C15.3457 9.22292 15.3211 8.95217 15.2815 8.68617C15.2443 8.42412 15.1929 8.16683 15.1232 7.91746H16.625V15.8951ZM15.8935 5.55829C16.298 5.55829 16.625 5.23054 16.625 4.82758V3.10571C16.625 2.70196 16.298 2.375 15.8935 2.375H14.1724C13.7679 2.375 13.4417 2.70196 13.4417 3.10571V4.82758C13.4417 5.23054 13.7679 5.55829 14.1724 5.55829H15.8935Z"/>
    </symbol>
    <symbol id="icon-point" viewBox="0 0 19 25" xmlns="http://www.w3.org/2000/svg">
        <path d="M9.34278 0C14.518 0 18.6856 4.30871 18.6856 9.65909C18.6856 15.0095 9.34278 25 9.34278 25C9.34278 25 0 15.0095 0 9.65909C0 4.30871 4.16761 0 9.34278 0ZM9.34278 4.97159C6.96129 4.97159 4.99198 7.00758 4.99198 9.4697C4.99198 11.9318 6.96129 13.9678 9.34278 13.9678C11.7701 13.9678 13.6936 11.9318 13.6936 9.4697C13.6936 6.96023 11.7243 4.97159 9.34278 4.97159Z"/>
    </symbol>
    <symbol id="icon-phone" viewBox="0 0 19 19" xmlns="http://www.w3.org/2000/svg">
        <path d="M15.4378 0C16.419 0 17.2583 0.348427 17.9548 1.04515C18.6515 1.74187 19 2.58118 19 3.56247V15.4374C19 16.4186 18.6516 17.2579 17.9547 17.9547C17.2581 18.6516 16.4189 19 15.4376 19H3.56253C2.58127 19 1.74203 18.6516 1.04517 17.9547C0.348432 17.2579 0 16.4186 0 15.4374V3.56247C0 2.58118 0.348432 1.742 1.04517 1.04515C1.74203 0.348427 2.58127 0 3.56253 0H15.4378ZM14.3922 15.4119C14.9982 15.1313 15.3878 14.8013 15.561 14.4221C15.7428 13.9861 15.8335 13.5696 15.8338 13.1741C15.8338 13.0834 15.8258 13.0173 15.8094 12.9761C15.7846 12.9102 15.6258 12.7886 15.333 12.6113C15.0401 12.434 14.6752 12.2299 14.2381 11.9989L13.5828 11.6406C13.5415 11.6155 13.4633 11.5621 13.3476 11.4794C13.2322 11.397 13.1294 11.335 13.0386 11.2938C12.9475 11.2526 12.8611 11.2321 12.7787 11.2321C12.63 11.2321 12.4363 11.3661 12.1973 11.6339C11.9582 11.9019 11.723 12.1719 11.4922 12.4443C11.261 12.7164 11.0795 12.8523 10.948 12.8523C10.89 12.8523 10.822 12.8378 10.7435 12.809C10.6651 12.7804 10.6013 12.7535 10.5518 12.7288C10.5024 12.7041 10.4321 12.6649 10.3415 12.6115C10.2505 12.5578 10.1926 12.5229 10.1681 12.5062C9.35152 12.0527 8.64859 11.5312 8.05883 10.9414C7.46933 10.3517 6.94763 9.64867 6.49413 8.83228C6.47776 8.8075 6.44262 8.74983 6.38902 8.65902C6.33551 8.56821 6.29626 8.49807 6.27152 8.44863C6.24678 8.39924 6.21996 8.33534 6.19111 8.25683C6.16221 8.1785 6.14778 8.11052 6.14778 8.05276C6.14778 7.94553 6.2324 7.80741 6.40133 7.63848C6.57039 7.46942 6.75587 7.31064 6.95794 7.16216C7.16002 7.01368 7.34559 6.85073 7.51469 6.6734C7.68371 6.49624 7.76832 6.34581 7.76832 6.22194C7.76832 6.13949 7.74766 6.05288 7.7065 5.96216C7.66534 5.87135 7.60334 5.76841 7.52093 5.65303C7.43852 5.53748 7.38488 5.45928 7.36014 5.41781C7.33545 5.36851 7.27362 5.25084 7.17466 5.06544C7.07566 4.87975 6.97254 4.69224 6.86535 4.5026C6.75816 4.313 6.6489 4.11713 6.53755 3.91501C6.42624 3.71294 6.32321 3.54601 6.22832 3.41404C6.13344 3.28207 6.06537 3.20802 6.02408 3.19134C5.98297 3.17488 5.91689 3.16656 5.8263 3.16656C5.43042 3.16656 5.01397 3.25728 4.57689 3.43877C4.19748 3.61199 3.86768 4.00162 3.58727 4.60766C3.30681 5.21379 3.16657 5.75186 3.16657 6.22194C3.16657 6.35378 3.17683 6.49416 3.19746 6.64264C3.21812 6.79111 3.23857 6.9168 3.25928 7.01974C3.27995 7.12295 3.31695 7.2589 3.37055 7.428C3.42419 7.59693 3.46548 7.71859 3.49416 7.79281C3.52301 7.86694 3.5747 8.00311 3.64888 8.2009C3.72318 8.39872 3.76854 8.52246 3.78492 8.57198C4.27976 9.92418 5.1725 11.2456 6.46302 12.5364C7.75355 13.8269 9.07527 14.7194 10.4277 15.2145C10.4769 15.2307 10.6007 15.2761 10.7987 15.3505C10.9965 15.4247 11.1324 15.4762 11.2069 15.505C11.2808 15.5338 11.4026 15.5752 11.5717 15.6286C11.7406 15.6823 11.8769 15.7194 11.9799 15.74C12.083 15.7606 12.2086 15.7811 12.357 15.8019C12.5054 15.8225 12.6456 15.8327 12.7776 15.8327C13.2478 15.8327 13.786 15.6924 14.3922 15.4119Z"/>
    </symbol>
    <symbol id="icon-email" viewBox="0 0 19 15" xmlns="http://www.w3.org/2000/svg">
        <path d="M17.2444 0.228882C17.7448 0.228882 18.1883 0.484066 18.4519 0.870205L9.3828 8.44244L0.274493 0.847697C0.540201 0.475005 0.973401 0.228882 1.46331 0.228882H17.2444ZM0.00177002 12.925V2.14204L9.3828 9.96477L18.706 2.18091V12.925C18.706 13.7288 18.0483 14.3865 17.2444 14.3865H1.46331C0.659462 14.3865 0.00177002 13.7288 0.00177002 12.925Z"/>
    </symbol>
    <symbol id="icon-home" viewBox="0 0 48 37" xmlns="http://www.w3.org/2000/svg">
        <path fill-rule="evenodd" clip-rule="evenodd" d="M41.1491 12.4477L47.6689 17.5616C47.8669 17.7115 47.9761 17.9128 47.9965 18.1651C48.0171 18.4181 47.9475 18.6385 47.7888 18.826L45.9428 20.9051C45.7829 21.0731 45.5752 21.1769 45.3175 21.2139H45.228C44.9699 21.2139 44.7619 21.1486 44.6028 21.0179L24.0001 4.80492L3.39762 21.018C3.15934 21.1678 2.92106 21.2336 2.68278 21.2147C2.42468 21.177 2.21654 21.0739 2.05751 20.9054L0.211643 18.8261C0.0526154 18.6389 -0.016731 18.4182 0.00339511 18.1655C0.0236255 17.9125 0.13239 17.7112 0.330835 17.5616L21.738 0.730536C22.3731 0.243479 23.1274 0 24.0007 0C24.8742 0 25.6285 0.243479 26.263 0.730536L33.5273 6.46273V0.98366C33.5273 0.721678 33.6165 0.506051 33.7949 0.337367C33.9738 0.16888 34.202 0.084637 34.48 0.084637H40.1963C40.4746 0.084637 40.703 0.16888 40.8807 0.337367C41.0598 0.506051 41.1491 0.72158 41.1491 0.98366V12.4477ZM6.61871 20.4527L23.9879 7.52941L41.3578 20.4527C41.3772 20.4883 41.3882 20.5431 41.3882 20.6157L41.3578 36.6829L6.61871 36.6825L6.58824 20.6157C6.58824 20.597 6.59353 20.5706 6.61871 20.4527Z"/>
    </symbol>
</svg>