<?xml version="1.0" encoding="UTF-8"?>
<!DOCTYPE svg PUBLIC "-//W3C//DTD SVG 1.1//EN" "http://www.w3.org/Graphics/SVG/1.1/DTD/svg11.dtd">
<!-- Creator: CorelDRAW Home & Student X7 -->
<svg xmlns="http://www.w3.org/2000/svg" xml:space="preserve" width="2034px" height="962px" version="1.1" style="shape-rendering:geometricPrecision; text-rendering:geometricPrecision; image-rendering:optimizeQuality; fill-rule:evenodd; clip-rule:evenodd"
viewBox="0 0 2034 962"
 xmlns:xlink="http://www.w3.org/1999/xlink">
 <defs>
  <style type="text/css">
   <![CDATA[
    .fil5 {fill:#2B2A29}
    .fil1 {fill:#129B4C}
    .fil3 {fill:url(#id0)}
    .fil0 {fill:url(#id1)}
    .fil4 {fill:url(#id2)}
    .fil2 {fill:url(#id3)}
   ]]>
  </style>
  <linearGradient id="id0" gradientUnits="userSpaceOnUse" x1="47.9446" y1="489.638" x2="441.637" y2="286.286">
   <stop offset="0" style="stop-opacity:1; stop-color:#2B2A29"/>
   <stop offset="1" style="stop-opacity:1; stop-color:#5B5B5B"/>
  </linearGradient>
  <linearGradient id="id1" gradientUnits="userSpaceOnUse" x1="-8.8093" y1="573.903" x2="494.298" y2="388.095">
   <stop offset="0" style="stop-opacity:1; stop-color:#2B2A29"/>
   <stop offset="1" style="stop-opacity:1; stop-color:#FEFEFE"/>
  </linearGradient>
  <linearGradient id="id2" gradientUnits="userSpaceOnUse" x1="28.0327" y1="458.918" x2="461.549" y2="689.13">
   <stop offset="0" style="stop-opacity:1; stop-color:#727271"/>
   <stop offset="1" style="stop-opacity:1; stop-color:#C5C6C6"/>
  </linearGradient>
  <linearGradient id="id3" gradientUnits="userSpaceOnUse" x1="87.9206" y1="853.574" x2="401.661" y2="666.575">
   <stop offset="0" style="stop-opacity:1; stop-color:#FEFEFE"/>
   <stop offset="1" style="stop-opacity:1; stop-color:#D9DADA"/>
  </linearGradient>
 </defs>
 <g id="Слой_x0020_1">
  <metadata id="CorelCorpID_0Corel-Layer"/>
  <path class="fil0" d="M272 109l-272 109 0 -218 272 109zm0 372l213 86 0 200 -485 195 0 -209 214 -86 -214 -86 0 -200 485 -195 0 209 -213 86z"/>
  <polygon class="fil1" points="245,109 13,16 13,111 13,202 "/>
  <polygon class="fil2" points="13,760 477,574 477,760 13,946 "/>
  <polygon class="fil3" points="13,388 477,202 477,388 13,574 "/>
  <polygon class="fil4" points="13,574 477,760 477,574 13,388 "/>
  <path class="fil5" d="M1978 233l-12 0 0 56 -55 0 0 12 55 0 0 56 12 0 0 -56 56 0 0 -12 -56 0 0 -56zm-1251 -31l-12 0 0 741 12 0 0 -741zm1214 458l93 -92 0 47 -53 52 53 52 0 47 -93 -92 0 86 -36 0 0 -186 36 0 0 86zm-409 -55l0 -31 124 0 0 31 -44 0 0 155 -36 0 0 -155 -44 0zm-456 103c0,11 -2,19 -6,26 -4,7 -10,12 -16,16 -7,4 -15,6 -24,8 -8,1 -17,2 -26,2l-61 0 0 -186 65 0c9,0 18,1 25,3 8,1 15,4 20,8 6,4 10,9 13,15 4,5 5,12 5,21 0,12 -3,21 -9,28 -6,7 -15,12 -27,15l0 1c13,2 23,7 30,14 8,7 11,17 11,29zm-42 -83c0,-4 -1,-8 -3,-11 -1,-4 -4,-6 -7,-8 -3,-2 -6,-3 -10,-3 -3,-1 -7,-1 -11,-1l-23 0 0 49 17 0c11,0 20,-2 27,-5 7,-4 10,-11 10,-21zm5 81c0,-6 -2,-11 -4,-15 -2,-4 -6,-7 -9,-9 -4,-2 -9,-3 -14,-4 -5,0 -10,-1 -15,-1l-17 0 0 56 18 0c5,0 10,-1 15,-1 5,-1 10,-2 13,-4 4,-2 7,-5 9,-8 2,-4 4,-8 4,-14zm736 -138c55,0 99,45 99,99 0,55 -44,99 -99,99 -54,0 -98,-44 -98,-99 0,-54 44,-99 98,-99zm0 37c34,0 62,28 62,62 0,34 -28,62 -62,62 -34,0 -61,-28 -61,-62 0,-34 27,-62 61,-62zm-346 -37c29,0 56,14 74,35l-26 26c-12,-14 -29,-23 -48,-23 -34,0 -62,27 -62,61 0,34 28,62 62,62 19,0 36,-9 48,-24l26 26c-18,21 -44,35 -74,35 -55,0 -99,-44 -99,-99 0,-54 44,-99 99,-99zm-228 0c54,0 99,45 99,99 0,55 -45,99 -99,99 -55,0 -99,-44 -99,-99 0,-54 44,-99 99,-99zm0 38c34,0 61,27 61,61 0,34 -27,62 -61,62 -34,0 -62,-28 -62,-62 0,-34 28,-61 62,-61zm455 -110l-15 0 -12 -30 -47 0 -11 30 -14 0 42 -108 14 0 43 108zm-31 -42l-17 -46c-1,-1 -1,-4 -2,-7l0 0c-1,3 -1,6 -2,7l-17 46 38 0zm-116 42l-13 0 0 -96 -58 0 0 96 -13 0 0 -108 84 0 0 108zm-142 0l-13 0 0 -96 -58 0 0 96 -13 0 0 -108 84 0 0 108zm-120 -108l-34 75c-6,14 -12,23 -18,27 -6,5 -12,8 -19,8 -5,0 -10,-1 -13,-3l0 -12c4,2 8,3 12,3 5,0 8,-1 12,-4 3,-3 7,-9 11,-17l-37 -77 14 0 27 58c1,1 2,3 3,7l0 0c0,-1 1,-3 3,-8l25 -57 14 0zm-187 67l0 41 -13 0 0 -108 30 0c12,0 21,3 28,8 6,6 10,14 10,24 0,10 -4,19 -11,25 -8,7 -17,10 -30,10l-14 0zm0 -56l0 45 13 0c9,0 16,-2 21,-6 5,-4 7,-10 7,-17 0,-15 -9,-22 -26,-22l-15 0zm-59 1l-45 0 0 96 -13 0 0 -108 58 0 0 12z"/>
 </g>
</svg>
