<svg width="1015" height="138" viewBox="0 0 1015 138" fill="none" xmlns="http://www.w3.org/2000/svg">
<g opacity="0.293888">
<path fill-rule="evenodd" clip-rule="evenodd" d="M832 137L824.286 133.8L814 129V137H832Z" stroke="#129B4C" stroke-width="1.49558"/>
<path fill-rule="evenodd" clip-rule="evenodd" d="M835 47.7692L824.5 43.3846L814 39V47.7692V58L824.5 53.6154L835 47.7692Z" stroke="#129B4C" stroke-width="1.49558"/>
<path fill-rule="evenodd" clip-rule="evenodd" d="M814 111.842L833.839 103L855 111.842V111.842L814 131V111.842Z" stroke="#129B4C" stroke-width="1.49558"/>
<path fill-rule="evenodd" clip-rule="evenodd" d="M814 94.24L855 112V94.24L814 75V94.24Z" stroke="#129B4C" stroke-width="1.49558"/>
<path fill-rule="evenodd" clip-rule="evenodd" d="M876 120.231L865.5 114.385L855 110V120.231V129L865.5 124.615L876 120.231Z" stroke="#129B4C" stroke-width="1.49558"/>
<path fill-rule="evenodd" clip-rule="evenodd" d="M878 137L895 129V137H878Z" stroke="#129B4C" stroke-width="1.49558"/>
<path fill-rule="evenodd" clip-rule="evenodd" d="M876 29.7692L865.5 25.3846L855 21V29.7692V40L865.5 34.1538L876 29.7692Z" stroke="#129B4C" stroke-width="1.49558"/>
<path fill-rule="evenodd" clip-rule="evenodd" d="M855 93.3158L874.839 83L896 93.3158V93.3158L855 111V93.3158Z" stroke="#129B4C" stroke-width="1.49558"/>
<path fill-rule="evenodd" clip-rule="evenodd" d="M855 58.1579L896 39V58.1579L876.161 67L855 58.1579V58.1579Z" stroke="#129B4C" stroke-width="1.49558"/>
<path fill-rule="evenodd" clip-rule="evenodd" d="M855 74.76L896 94V74.76L855 57V74.76Z" stroke="#129B4C" stroke-width="1.49558"/>
<path fill-rule="evenodd" clip-rule="evenodd" d="M916 102.769L905.5 98.3846L895 94V102.769V113L905.5 107.154L916 102.769Z" stroke="#129B4C" stroke-width="1.49558"/>
<path fill-rule="evenodd" clip-rule="evenodd" d="M895 129.5L936 110V129.5L918.806 137H913.516L895 129.5V129.5Z" stroke="#129B4C" stroke-width="1.49558"/>
<path fill-rule="evenodd" clip-rule="evenodd" d="M913 137L895 129V137H913Z" stroke="#129B4C" stroke-width="1.49558"/>
<path fill-rule="evenodd" clip-rule="evenodd" d="M916 12.2308L905.5 6.38462L895 2V12.2308V21L905.5 16.6154L916 12.2308Z" stroke="#129B4C" stroke-width="1.49558"/>
<path fill-rule="evenodd" clip-rule="evenodd" d="M895 38.6842L936 21V40.1579L916.161 49L895 38.6842V38.6842Z" stroke="#129B4C" stroke-width="1.49558"/>
<path fill-rule="evenodd" clip-rule="evenodd" d="M895 58.24L936 76V58.24L895 39V58.24Z" stroke="#129B4C" stroke-width="1.49558"/>
<path fill-rule="evenodd" clip-rule="evenodd" d="M957 85.2308L946.5 79.3846L936 75V85.2308V94L946.5 89.6154L957 85.2308Z" stroke="#129B4C" stroke-width="1.49558"/>
<path fill-rule="evenodd" clip-rule="evenodd" d="M936 111.684L977 94V113.158L957.161 122L936 111.684V111.684Z" stroke="#129B4C" stroke-width="1.49558"/>
<path fill-rule="evenodd" clip-rule="evenodd" d="M936 129.5L953.194 137H977V129.5L936 110V129.5Z" stroke="#129B4C" stroke-width="1.49558"/>
<path fill-rule="evenodd" clip-rule="evenodd" d="M997 65.7692L986.5 61.3846L976 57V65.7692V76L986.5 71.6154L997 65.7692Z" stroke="#129B4C" stroke-width="1.49558"/>
<path fill-rule="evenodd" clip-rule="evenodd" d="M976 130.182L995.839 122L1017 130.182V130.182L999.806 137H976V130.182Z" stroke="#129B4C" stroke-width="1.49558"/>
<path fill-rule="evenodd" clip-rule="evenodd" d="M976 94L1017 76V94L997.161 103L976 94V94Z" stroke="#129B4C" stroke-width="1.49558"/>
<path fill-rule="evenodd" clip-rule="evenodd" d="M628 137L620.154 133.8L611 129V137H628Z" stroke="#129B4C" stroke-width="1.49558"/>
<path fill-rule="evenodd" clip-rule="evenodd" d="M611 111.842L630.839 103L652 111.842V111.842L611 131V111.842Z" stroke="#129B4C" stroke-width="1.49558"/>
<path fill-rule="evenodd" clip-rule="evenodd" d="M611 94.24L652 112V94.24L611 75V94.24Z" stroke="#129B4C" stroke-width="1.49558"/>
<path fill-rule="evenodd" clip-rule="evenodd" d="M672 120.231L661.333 114.385L652 110V120.231V129L661.333 124.615L672 120.231Z" stroke="#129B4C" stroke-width="1.49558"/>
<path fill-rule="evenodd" clip-rule="evenodd" d="M674 137L692 129V137H674Z" stroke="#129B4C" stroke-width="1.49558"/>
<path fill-rule="evenodd" clip-rule="evenodd" d="M672 29.7692L661.333 25.3846L652 21V29.7692V40L661.333 34.1538L672 29.7692Z" stroke="#129B4C" stroke-width="1.49558"/>
<path fill-rule="evenodd" clip-rule="evenodd" d="M652 93.3158L671.839 83L693 93.3158V93.3158L652 111V93.3158Z" stroke="#129B4C" stroke-width="1.49558"/>
<path fill-rule="evenodd" clip-rule="evenodd" d="M652 58.1579L693 39V58.1579L671.839 67L652 58.1579V58.1579Z" stroke="#129B4C" stroke-width="1.49558"/>
<path fill-rule="evenodd" clip-rule="evenodd" d="M712 102.769L701.333 98.3846L692 94V102.769V113L701.333 107.154L712 102.769Z" stroke="#129B4C" stroke-width="1.49558"/>
<path fill-rule="evenodd" clip-rule="evenodd" d="M692 129.5L733 110V129.5L715.806 137H709.194L692 129.5V129.5Z" stroke="#129B4C" stroke-width="1.49558"/>
<path fill-rule="evenodd" clip-rule="evenodd" d="M709 137L692 129V137H709Z" stroke="#129B4C" stroke-width="1.49558"/>
<path fill-rule="evenodd" clip-rule="evenodd" d="M712 12.2308L701.333 6.38462L692 2V12.2308V21L701.333 16.6154L712 12.2308Z" stroke="#129B4C" stroke-width="1.49558"/>
<path fill-rule="evenodd" clip-rule="evenodd" d="M692 74.8421L711.839 66L733 74.8421V74.8421L692 94V74.8421Z" stroke="#129B4C" stroke-width="1.49558"/>
<path fill-rule="evenodd" clip-rule="evenodd" d="M692 38.6842L733 21V40.1579L713.161 49L692 38.6842V38.6842Z" stroke="#129B4C" stroke-width="1.49558"/>
<path fill-rule="evenodd" clip-rule="evenodd" d="M692 58.24L733 76V58.24L692 39V58.24Z" stroke="#129B4C" stroke-width="1.49558"/>
<path fill-rule="evenodd" clip-rule="evenodd" d="M753 85.2308L742.333 79.3846L733 75V85.2308V94L742.333 89.6154L753 85.2308Z" stroke="#129B4C" stroke-width="1.49558"/>
<path fill-rule="evenodd" clip-rule="evenodd" d="M733 111.684L774 94V113.158L754.161 122L733 111.684V111.684Z" stroke="#129B4C" stroke-width="1.49558"/>
<path fill-rule="evenodd" clip-rule="evenodd" d="M793 65.7692L783.667 61.3846L773 57V65.7692V76L783.667 71.6154L793 65.7692Z" stroke="#129B4C" stroke-width="1.49558"/>
<path fill-rule="evenodd" clip-rule="evenodd" d="M773 130.182L792.839 122L814 130.182V130.182L796.806 137H773V130.182Z" stroke="#129B4C" stroke-width="1.49558"/>
<path fill-rule="evenodd" clip-rule="evenodd" d="M773 94L814 76V94L794.161 103L773 94V94Z" stroke="#129B4C" stroke-width="1.49558"/>
<path fill-rule="evenodd" clip-rule="evenodd" d="M773 113.24L814 131V111.76L773 94V113.24Z" stroke="#129B4C" stroke-width="1.49558"/>
<path fill-rule="evenodd" clip-rule="evenodd" d="M425 137L417.286 133.8L407 129V137H425Z" stroke="#129B4C" stroke-width="1.49558"/>
<path fill-rule="evenodd" clip-rule="evenodd" d="M428 47.7692L417.5 43.3846L407 39V47.7692V58L417.5 53.6154L428 47.7692Z" stroke="#129B4C" stroke-width="1.49558"/>
<path fill-rule="evenodd" clip-rule="evenodd" d="M407 111.842L428.161 103L448 111.842V111.842L407 131V111.842Z" stroke="#129B4C" stroke-width="1.49558"/>
<path fill-rule="evenodd" clip-rule="evenodd" d="M407 75L448 57V75L428.161 84L407 75V75Z" stroke="#129B4C" stroke-width="1.49558"/>
<path fill-rule="evenodd" clip-rule="evenodd" d="M407 94.24L448 112V94.24L407 75V94.24Z" stroke="#129B4C" stroke-width="1.49558"/>
<path fill-rule="evenodd" clip-rule="evenodd" d="M468 120.231L457.5 114.385L447 110V120.231V129L457.5 124.615L468 120.231Z" stroke="#129B4C" stroke-width="1.49558"/>
<path fill-rule="evenodd" clip-rule="evenodd" d="M471 137L489 129V137H471Z" stroke="#129B4C" stroke-width="1.49558"/>
<path fill-rule="evenodd" clip-rule="evenodd" d="M468 29.7692L457.5 25.3846L447 21V29.7692V40L457.5 34.1538L468 29.7692Z" stroke="#129B4C" stroke-width="1.49558"/>
<path fill-rule="evenodd" clip-rule="evenodd" d="M447 93.3158L468 83L489 93.3158V93.3158L447 111V93.3158Z" stroke="#129B4C" stroke-width="1.49558"/>
<path fill-rule="evenodd" clip-rule="evenodd" d="M447 58.1579L489 39V58.1579L468 67L447 58.1579V58.1579Z" stroke="#129B4C" stroke-width="1.49558"/>
<path fill-rule="evenodd" clip-rule="evenodd" d="M447 74.76L489 94V74.76L447 57V74.76Z" stroke="#129B4C" stroke-width="1.49558"/>
<path fill-rule="evenodd" clip-rule="evenodd" d="M509 102.769L498.5 98.3846L488 94V102.769V113L498.5 107.154L509 102.769Z" stroke="#129B4C" stroke-width="1.49558"/>
<path fill-rule="evenodd" clip-rule="evenodd" d="M489 129.5L530 110V129.5L511.484 137H506.194L489 129.5V129.5Z" stroke="#129B4C" stroke-width="1.49558"/>
<path fill-rule="evenodd" clip-rule="evenodd" d="M506 137L489 129V137H506Z" stroke="#129B4C" stroke-width="1.49558"/>
<path fill-rule="evenodd" clip-rule="evenodd" d="M509 12.2308L498.5 6.38462L488 2V12.2308V21L498.5 16.6154L509 12.2308Z" fill="#FEFEFE" stroke="#FEFEFE" stroke-width="1.49558"/>
<path fill-rule="evenodd" clip-rule="evenodd" d="M489 74.8421L508.839 66L530 74.8421V74.8421L489 94V74.8421Z" stroke="#129B4C" stroke-width="1.49558"/>
<path fill-rule="evenodd" clip-rule="evenodd" d="M489 38.6842L530 21V40.1579L508.839 49L489 38.6842V38.6842Z" stroke="#129B4C" stroke-width="1.49558"/>
<path fill-rule="evenodd" clip-rule="evenodd" d="M489 58.24L530 76V58.24L489 39V58.24Z" stroke="#129B4C" stroke-width="1.49558"/>
<path fill-rule="evenodd" clip-rule="evenodd" d="M550 85.2308L539.5 79.3846L529 75V85.2308V94L539.5 89.6154L550 85.2308Z" stroke="#129B4C" stroke-width="1.49558"/>
<path fill-rule="evenodd" clip-rule="evenodd" d="M530 111.684L571 94V113.158L549.839 122L530 111.684V111.684Z" stroke="#129B4C" stroke-width="1.49558"/>
<path fill-rule="evenodd" clip-rule="evenodd" d="M530 129.5L547.194 137H571V129.5L530 110V129.5Z" stroke="#129B4C" stroke-width="1.49558"/>
<path fill-rule="evenodd" clip-rule="evenodd" d="M590 65.7692L579.5 61.3846L569 57V65.7692V76L579.5 71.6154L590 65.7692Z" stroke="#129B4C" stroke-width="1.49558"/>
<path fill-rule="evenodd" clip-rule="evenodd" d="M571 130.182L590.839 122L612 130.182V130.182L594.806 137H571V130.182Z" stroke="#129B4C" stroke-width="1.49558"/>
<path fill-rule="evenodd" clip-rule="evenodd" d="M571 94L612 76V94L590.839 103L571 94V94Z" stroke="#129B4C" stroke-width="1.49558"/>
<path fill-rule="evenodd" clip-rule="evenodd" d="M222 137L214.286 133.8L204 129V137H222Z" stroke="#129B4C" stroke-width="1.49558"/>
<path fill-rule="evenodd" clip-rule="evenodd" d="M225.161 47.7619L214.581 43.381L204 39V47.7619V57.9841L214.581 53.6032L225.161 47.7619Z" stroke="#129B4C" stroke-width="1.49558"/>
<path fill-rule="evenodd" clip-rule="evenodd" d="M204 112.016L223.839 103.254L245 112.016V112.016L204 131V112.016Z" stroke="#129B4C" stroke-width="1.49558"/>
<path fill-rule="evenodd" clip-rule="evenodd" d="M204 75.5079L245 57.9841V75.5079L225.161 84.2698L204 75.5079V75.5079Z" stroke="#129B4C" stroke-width="1.49558"/>
<path fill-rule="evenodd" clip-rule="evenodd" d="M204 94.4921L245 112.016V94.4921L204 75.5079V94.4921Z" stroke="#129B4C" stroke-width="1.49558"/>
<path fill-rule="evenodd" clip-rule="evenodd" d="M266.161 120.5L255.581 114.5L245 110V120.5V129.5L255.581 125L266.161 120.5Z" stroke="#129B4C" stroke-width="1.49558"/>
<path fill-rule="evenodd" clip-rule="evenodd" d="M268.806 137L286 129.5V137H268.806Z" stroke="#129B4C" stroke-width="1.49558"/>
<path fill-rule="evenodd" clip-rule="evenodd" d="M306.161 102.6L295.581 98.3L285 94V102.6V112.633L295.581 106.9L306.161 102.6Z" stroke="#129B4C" stroke-width="1.49558"/>
<path fill-rule="evenodd" clip-rule="evenodd" d="M285 129.833L326 111.2V129.833L308.806 137H303.516L285 129.833V129.833Z" stroke="#129B4C" stroke-width="1.49558"/>
<path fill-rule="evenodd" clip-rule="evenodd" d="M303.516 137L285 129.833V137H303.516Z" stroke="#129B4C" stroke-width="1.49558"/>
<path fill-rule="evenodd" clip-rule="evenodd" d="M306.161 12.2222L295.581 6.38095L285 2V12.2222V20.9841L295.581 16.6032L306.161 12.2222Z" stroke="#129B4C" stroke-width="1.49558"/>
<path fill-rule="evenodd" clip-rule="evenodd" d="M285 75.0159L306.161 66.254L326 75.0159V75.0159L285 94V75.0159Z" stroke="#129B4C" stroke-width="1.49558"/>
<path fill-rule="evenodd" clip-rule="evenodd" d="M285 38.5079L326 20.9841V39.9683L306.161 48.7302L285 38.5079V38.5079Z" stroke="#129B4C" stroke-width="1.49558"/>
<path fill-rule="evenodd" clip-rule="evenodd" d="M285 57.4921L326 75.0159V57.4921L285 38.5079V57.4921Z" stroke="#129B4C" stroke-width="1.49558"/>
<path fill-rule="evenodd" clip-rule="evenodd" d="M347.161 85.093L336.581 79.3256L326 75V85.093V93.7442L336.581 89.4186L347.161 85.093Z" stroke="#129B4C" stroke-width="1.49558"/>
<path fill-rule="evenodd" clip-rule="evenodd" d="M326 111.047L367 93.7442V112.488L347.161 121.14L326 111.047V111.047Z" stroke="#129B4C" stroke-width="1.49558"/>
<path fill-rule="evenodd" clip-rule="evenodd" d="M326 129.791L343.194 137H367V129.791L326 111.047V129.791Z" stroke="#129B4C" stroke-width="1.49558"/>
<path fill-rule="evenodd" clip-rule="evenodd" d="M19 137L11.2857 133.8L1 129V137H19Z" stroke="#129B4C" stroke-width="1.49558"/>
<path fill-rule="evenodd" clip-rule="evenodd" d="M22.1613 47.7619L11.5806 43.381L1 39V47.7619V57.9841L11.5806 53.6032L22.1613 47.7619Z" stroke="#129B4C" stroke-width="1.49558"/>
<path fill-rule="evenodd" clip-rule="evenodd" d="M1 112.016L20.8387 103.254L42 112.016V112.016L1 131V112.016Z" stroke="#129B4C" stroke-width="1.49558"/>
<path fill-rule="evenodd" clip-rule="evenodd" d="M1 75.5079L42 57.9841V75.5079L22.1613 84.2698L1 75.5079V75.5079Z" stroke="#129B4C" stroke-width="1.49558"/>
<path fill-rule="evenodd" clip-rule="evenodd" d="M1 94.4921L42 112.016V94.4921L1 75.5079V94.4921Z" stroke="#129B4C" stroke-width="1.49558"/>
<path fill-rule="evenodd" clip-rule="evenodd" d="M63.1613 120.5L52.5806 114.5L42 110V120.5V129.5L52.5806 125L63.1613 120.5Z" stroke="#129B4C" stroke-width="1.49558"/>
<path fill-rule="evenodd" clip-rule="evenodd" d="M64.4839 137L83 129.5V137H64.4839Z" stroke="#129B4C" stroke-width="1.49558"/>
<path fill-rule="evenodd" clip-rule="evenodd" d="M63.1613 29.7097L52.5806 25.3548L42 21V29.7097V39.871L52.5806 34.0645L63.1613 29.7097Z" stroke="#129B4C" stroke-width="1.49558"/>
<path fill-rule="evenodd" clip-rule="evenodd" d="M42 93.5806L61.8387 83.4193L83 93.5806V93.5806L42 111V93.5806Z" stroke="#129B4C" stroke-width="1.49558"/>
<path fill-rule="evenodd" clip-rule="evenodd" d="M42 57.2903L83 38.4193V57.2903L63.1613 66L42 57.2903V57.2903Z" stroke="#129B4C" stroke-width="1.49558"/>
<path fill-rule="evenodd" clip-rule="evenodd" d="M42 74.7097L83 93.5806V74.7097L42 57.2903V74.7097Z" stroke="#129B4C" stroke-width="1.49558"/>
<path fill-rule="evenodd" clip-rule="evenodd" d="M103.161 102.6L92.5806 98.3L82 94V102.6V112.633L92.5806 106.9L103.161 102.6Z" stroke="#129B4C" stroke-width="1.49558"/>
<path fill-rule="evenodd" clip-rule="evenodd" d="M82 129.833L123 111.2V129.833L105.806 137H99.1935L82 129.833V129.833Z" stroke="#129B4C" stroke-width="1.49558"/>
<path fill-rule="evenodd" clip-rule="evenodd" d="M99.1935 137L82 129.833V137H99.1935Z" stroke="#129B4C" stroke-width="1.49558"/>
<path fill-rule="evenodd" clip-rule="evenodd" d="M144.161 85.093L133.581 79.3256L123 75V85.093V93.7442L133.581 89.4186L144.161 85.093Z" stroke="#129B4C" stroke-width="1.49558"/>
<path fill-rule="evenodd" clip-rule="evenodd" d="M123 111.047L164 93.7442V112.488L144.161 121.14L123 111.047V111.047Z" stroke="#129B4C" stroke-width="1.49558"/>
<path fill-rule="evenodd" clip-rule="evenodd" d="M123 129.791L140.194 137H164V129.791L123 111.047V129.791Z" stroke="#129B4C" stroke-width="1.49558"/>
</g>
</svg>
