<?xml version="1.0" encoding="UTF-8"?>
<!DOCTYPE svg PUBLIC "-//W3C//DTD SVG 1.1//EN" "http://www.w3.org/Graphics/SVG/1.1/DTD/svg11.dtd">
<!-- Creator: CorelDRAW Home & Student X7 -->
<svg xmlns="http://www.w3.org/2000/svg" xml:space="preserve" width="2034px" height="962px" version="1.1" style="shape-rendering:geometricPrecision; text-rendering:geometricPrecision; image-rendering:optimizeQuality; fill-rule:evenodd; clip-rule:evenodd"
viewBox="0 0 2034 962"
 xmlns:xlink="http://www.w3.org/1999/xlink">
 <defs>
  <style type="text/css">
   <![CDATA[
    .fil5 {fill:#2B2A29}
    .fil1 {fill:#129B4C}
    .fil6 {fill:#129B4C}
    .fil3 {fill:url(#id0)}
    .fil0 {fill:url(#id1)}
    .fil4 {fill:url(#id2)}
    .fil2 {fill:url(#id3)}
   ]]>
  </style>
  <linearGradient id="id0" gradientUnits="userSpaceOnUse" x1="47.9446" y1="489.638" x2="441.637" y2="286.286">
   <stop offset="0" style="stop-opacity:1; stop-color:#2B2A29"/>
   <stop offset="1" style="stop-opacity:1; stop-color:#5B5B5B"/>
  </linearGradient>
  <linearGradient id="id1" gradientUnits="userSpaceOnUse" x1="-8.8093" y1="573.903" x2="494.298" y2="388.095">
   <stop offset="0" style="stop-opacity:1; stop-color:#2B2A29"/>
   <stop offset="1" style="stop-opacity:1; stop-color:#FEFEFE"/>
  </linearGradient>
  <linearGradient id="id2" gradientUnits="userSpaceOnUse" x1="28.0327" y1="458.918" x2="461.549" y2="689.13">
   <stop offset="0" style="stop-opacity:1; stop-color:#727271"/>
   <stop offset="1" style="stop-opacity:1; stop-color:#C5C6C6"/>
  </linearGradient>
  <linearGradient id="id3" gradientUnits="userSpaceOnUse" x1="87.9206" y1="853.574" x2="401.661" y2="666.575">
   <stop offset="0" style="stop-opacity:1; stop-color:#FEFEFE"/>
   <stop offset="1" style="stop-opacity:1; stop-color:#D9DADA"/>
  </linearGradient>
 </defs>
 <g id="Слой_x0020_1">
  <metadata id="CorelCorpID_0Corel-Layer"/>
  <path class="fil0" d="M272 109l-272 109 0 -218 272 109zm0 372l213 86 0 200 -485 195 0 -209 214 -86 -214 -86 0 -200 485 -195 0 209 -213 86z"/>
  <polygon class="fil1" points="245,109 13,16 13,111 13,202 "/>
  <polygon class="fil2" points="13,760 477,574 477,760 13,946 "/>
  <polygon class="fil3" points="13,388 477,202 477,388 13,574 "/>
  <polygon class="fil4" points="13,574 477,760 477,574 13,388 "/>
  <path class="fil5" d="M1978 233l-12 0 0 56 -55 0 0 12 55 0 0 56 12 0 0 -56 56 0 0 -12 -56 0 0 -56zm-1251 -31l-12 0 0 741 12 0 0 -741zm1214 458l93 -92 0 47 -53 52 53 52 0 47 -93 -92 0 86 -36 0 0 -186 36 0 0 86zm-409 -55l0 -31 124 0 0 31 -44 0 0 155 -36 0 0 -155 -44 0zm-456 103c0,11 -2,19 -6,26 -4,7 -10,12 -16,16 -7,4 -15,6 -24,8 -8,1 -17,2 -26,2l-61 0 0 -186 65 0c9,0 18,1 25,3 8,1 15,4 20,8 6,4 10,9 13,15 4,5 5,12 5,21 0,12 -3,21 -9,28 -6,7 -15,12 -27,15l0 1c13,2 23,7 30,14 8,7 11,17 11,29zm-42 -83c0,-4 -1,-8 -3,-11 -1,-4 -4,-6 -7,-8 -3,-2 -6,-3 -10,-3 -3,-1 -7,-1 -11,-1l-23 0 0 49 17 0c11,0 20,-2 27,-5 7,-4 10,-11 10,-21zm5 81c0,-6 -2,-11 -4,-15 -2,-4 -6,-7 -9,-9 -4,-2 -9,-3 -14,-4 -5,0 -10,-1 -15,-1l-17 0 0 56 18 0c5,0 10,-1 15,-1 5,-1 10,-2 13,-4 4,-2 7,-5 9,-8 2,-4 4,-8 4,-14zm736 -138c55,0 99,45 99,99 0,55 -44,99 -99,99 -54,0 -98,-44 -98,-99 0,-54 44,-99 98,-99zm0 37c34,0 62,28 62,62 0,34 -28,62 -62,62 -34,0 -61,-28 -61,-62 0,-34 27,-62 61,-62zm-346 -37c29,0 56,14 74,35l-26 26c-12,-14 -29,-23 -48,-23 -34,0 -62,27 -62,61 0,34 28,62 62,62 19,0 36,-9 48,-24l26 26c-18,21 -44,35 -74,35 -55,0 -99,-44 -99,-99 0,-54 44,-99 99,-99zm-228 0c54,0 99,45 99,99 0,55 -45,99 -99,99 -55,0 -99,-44 -99,-99 0,-54 44,-99 99,-99zm0 38c34,0 61,27 61,61 0,34 -27,62 -61,62 -34,0 -62,-28 -62,-62 0,-34 28,-61 62,-61zm455 -110l-15 0 -12 -30 -47 0 -11 30 -14 0 42 -108 14 0 43 108zm-31 -42l-17 -46c-1,-1 -1,-4 -2,-7l0 0c-1,3 -1,6 -2,7l-17 46 38 0zm-116 42l-13 0 0 -96 -58 0 0 96 -13 0 0 -108 84 0 0 108zm-142 0l-13 0 0 -96 -58 0 0 96 -13 0 0 -108 84 0 0 108zm-120 -108l-34 75c-6,14 -12,23 -18,27 -6,5 -12,8 -19,8 -5,0 -10,-1 -13,-3l0 -12c4,2 8,3 12,3 5,0 8,-1 12,-4 3,-3 7,-9 11,-17l-37 -77 14 0 27 58c1,1 2,3 3,7l0 0c0,-1 1,-3 3,-8l25 -57 14 0zm-187 67l0 41 -13 0 0 -108 30 0c12,0 21,3 28,8 6,6 10,14 10,24 0,10 -4,19 -11,25 -8,7 -17,10 -30,10l-14 0zm0 -56l0 45 13 0c9,0 16,-2 21,-6 5,-4 7,-10 7,-17 0,-15 -9,-22 -26,-22l-15 0zm-59 1l-45 0 0 96 -13 0 0 -108 58 0 0 12z"/>
  <path class="fil6" d="M1421 854l-25 62 -9 0 -24 -62 11 0 16 45c1,4 2,7 2,9l0 0c1,-3 1,-6 2,-8l17 -46 10 0zm37 64c-9,0 -17,-3 -22,-9 -6,-6 -8,-13 -8,-23 0,-11 3,-19 8,-25 6,-6 14,-8 23,-8 10,0 17,2 22,8 5,6 8,14 8,24 0,10 -3,18 -8,24 -6,6 -14,9 -23,9zm1 -57c-7,0 -12,2 -16,6 -3,5 -5,11 -5,19 0,7 2,13 6,17 3,4 8,7 15,7 6,0 11,-3 15,-7 3,-4 5,-10 5,-18 0,-7 -2,-14 -5,-18 -4,-4 -9,-6 -15,-6zm42 53l0 -10c6,4 12,6 18,6 9,0 13,-3 13,-9 0,-2 0,-3 -1,-5 -1,-1 -2,-2 -3,-3 -1,-1 -3,-1 -4,-2 -2,-1 -4,-1 -6,-2 -3,-1 -5,-2 -7,-4 -2,-1 -4,-2 -5,-3 -2,-2 -3,-3 -4,-5 0,-2 -1,-4 -1,-6 0,-3 1,-6 2,-8 2,-2 4,-4 6,-6 2,-1 5,-3 7,-3 3,-1 6,-1 9,-1 6,0 10,0 15,2l0 10c-5,-3 -10,-4 -16,-4 -2,0 -4,0 -5,1 -2,0 -3,1 -4,1 -1,1 -2,2 -3,3 0,1 0,2 0,4 0,1 0,3 0,4 1,1 2,2 3,3 1,1 3,1 4,2 2,1 4,1 6,2 3,1 5,2 7,4 2,1 4,2 6,3 1,2 3,3 3,5 1,2 2,4 2,7 0,3 -1,6 -2,8 -2,2 -4,4 -6,5 -2,2 -5,3 -8,4 -3,1 -6,1 -9,1 -6,0 -12,-1 -17,-4zm86 2c-2,1 -6,2 -9,2 -11,0 -17,-6 -17,-19l0 -37 -11 0 0 -8 11 0 0 -15 10 -3 0 18 16 0 0 8 -16 0 0 36c0,4 1,7 2,9 2,2 4,2 7,2 3,0 5,0 7,-2l0 9zm39 2c-9,0 -16,-3 -22,-9 -5,-6 -8,-13 -8,-23 0,-11 3,-19 9,-25 5,-6 13,-8 23,-8 9,0 16,2 22,8 5,6 7,14 7,24 0,10 -2,18 -8,24 -6,6 -13,9 -23,9zm1 -57c-6,0 -11,2 -15,6 -4,5 -6,11 -6,19 0,7 2,13 6,17 4,4 9,7 15,7 7,0 11,-3 15,-7 3,-4 5,-10 5,-18 0,-7 -2,-14 -5,-18 -4,-4 -8,-6 -15,-6zm98 55l-14 0 -27 -30 -1 0 0 30 -10 0 0 -92 10 0 0 59 1 0 26 -29 13 0 -29 30 31 32zm21 -9l-1 0 0 38 -10 0 0 -91 10 0 0 11 1 0c5,-8 12,-12 21,-12 8,0 15,2 19,8 5,5 7,13 7,22 0,11 -3,19 -8,25 -5,7 -12,10 -21,10 -8,0 -14,-4 -18,-11zm-1 -25l0 9c0,5 2,10 5,13 4,4 8,6 13,6 6,0 11,-3 14,-7 4,-5 6,-12 6,-20 0,-7 -2,-12 -5,-16 -3,-4 -8,-6 -13,-6 -6,0 -11,2 -14,6 -4,4 -6,9 -6,15zm93 34c-3,1 -6,2 -10,2 -11,0 -16,-6 -16,-19l0 -37 -11 0 0 -8 11 0 0 -15 10 -3 0 18 16 0 0 8 -16 0 0 36c0,4 1,7 2,9 2,2 4,2 7,2 3,0 5,0 7,-2l0 9zm65 0l-14 0 -28 -30 0 0 0 30 -10 0 0 -92 10 0 0 59 0 0 26 -29 14 0 -29 30 31 32zm14 2c-2,0 -4,-1 -5,-2 -2,-2 -2,-3 -2,-5 0,-2 0,-4 2,-5 1,-1 3,-2 5,-2 1,0 3,1 4,2 2,1 2,3 2,5 0,2 0,3 -2,5 -1,1 -3,2 -4,2zm56 -54c-2,-1 -5,-2 -8,-2 -4,0 -8,2 -11,6 -2,4 -4,10 -4,17l0 31 -10 0 0 -62 10 0 0 13 0 0c2,-5 4,-8 7,-10 3,-3 6,-4 10,-4 2,0 4,0 6,1l0 10zm61 52l-10 0 0 -9 0 0c-4,7 -11,11 -20,11 -14,0 -22,-9 -22,-27l0 -37 10 0 0 36c0,13 5,20 15,20 5,0 9,-2 12,-6 3,-3 5,-8 5,-14l0 -36 10 0 0 62z"/>
 </g>
</svg>
